<svg viewBox="0 0 24 24" fill="none" xmlns="http://www.w3.org/2000/svg" style="height: 24px; width: 24px;"><path d="m6.934 19.134-.492.758a1.253 1.253 0 0 1-1.693.444 1.223 1.223 0 0 1-.46-1.677l.307-.452c.113-.17.403-.46.984-.411 0 0 1.362.145 1.467.846 0 0 .008.226-.145.46l.032.032Zm13.697-4.942h-2.918c-.202-.016-.29-.088-.323-.129l-.008-.008-2.79-4.522c-.314-.468-.797.717-.797.717-.589 1.322.08 2.822.306 3.281l3.805 6.329a1.24 1.24 0 0 0 1.685.443c.589-.338.79-1.088.452-1.677l-1.089-1.862c-.024-.048-.064-.17.162-.17h1.467c.677 0 1.233-.547 1.233-1.225 0-.677-.556-1.225-1.241-1.225l.056.048Zm-7.022 1.661s.153.782-.451.782l-9.416-.008A1.234 1.234 0 0 1 2.5 15.402c0-.678.548-1.226 1.233-1.226H6.5c.443-.032.548-.282.548-.282l3.612-6.208-.008-.008c.064-.12.008-.234 0-.258L9.449 5.357a1.213 1.213 0 0 1 .452-1.677 1.236 1.236 0 0 1 1.685.444l.548.943.548-.951a1.239 1.239 0 0 1 1.688-.452c.588.33.79 1.08.451 1.67l-5.03 8.625c-.025.049-.033.13.128.145h1.645s1.733.049 1.975 1.661l.07.088Z" fill="currentColor"></path></svg>