<svg viewBox="0 0 24 24" fill="none" xmlns="http://www.w3.org/2000/svg" style="height: 24px; width: 24px;"><path d="m17.855 8.917 1.99-3.331a.383.383 0 0 0-.145-.533.407.407 0 0 0-.55.141L17.135 8.57A12.67 12.67 0 0 0 12 7.51c-1.863 0-3.595.379-5.134 1.058L4.85 5.194a.393.393 0 0 0-.245-.181.416.416 0 0 0-.425.14.383.383 0 0 0-.079.289c.007.05.025.1.052.144l1.99 3.331C2.71 10.714.384 14.07 0 18h24c-.384-3.93-2.71-7.286-6.145-9.083ZM6.49 14.744c-.557 0-1.006-.436-1.006-.971 0-.538.452-.972 1.006-.972.556 0 1.006.437 1.006.972.002.535-.45.971-1.006.971Zm11.018 0c-.557 0-1.006-.436-1.006-.971 0-.538.452-.972 1.006-.972.556 0 1.005.437 1.005.972.003.535-.449.971-1.006.971Z" fill="currentColor"></path></svg>