<svg viewBox="0 0 24 24" fill="none" xmlns="http://www.w3.org/2000/svg" style="height: 24px; width: 24px;"><path d="M4.386 9.22c-1.776 3.081-.647 7.756 1.316 10.59.98 1.418 1.972 2.69 3.33 2.69.026 0 .052 0 .078-.002.638-.025 1.1-.222 1.546-.412.5-.214 1.018-.435 1.83-.435.773 0 1.266.214 1.743.42.47.203.954.413 1.67.4 1.53-.03 2.47-1.402 3.299-2.613a11.577 11.577 0 0 0 1.445-2.961l.005-.02a.173.173 0 0 0-.104-.216c-.27-.111-2.635-1.16-2.66-4.018-.023-2.323 1.774-3.553 2.134-3.776l.017-.011a.174.174 0 0 0 .048-.242c-1.24-1.816-3.142-2.09-3.906-2.122a3.274 3.274 0 0 0-.341-.017c-.9 0-1.76.339-2.453.612-.477.188-.89.35-1.174.35-.32 0-.735-.165-1.215-.355-.643-.255-1.37-.544-2.141-.544h-.055c-1.792.026-3.486 1.051-4.42 2.675l.008.008Z" fill="currentColor"></path><path d="M16.182 1.502c-1.086.044-2.387.712-3.165 1.624-.662.765-1.308 2.043-1.138 3.33a.17.17 0 0 0 .157.148c.073.006.148.01.222.009 1.061 0 2.206-.588 2.988-1.533.822-.998 1.239-2.279 1.112-3.426a.174.174 0 0 0-.178-.154l.002.002Z" fill="currentColor"></path></svg>