<svg fill="none" viewBox="0 0 24 24" width="20px" height="20px" color="var(--iconActive)" data-sentry-element="Svg" data-sentry-component="SvgWallet" data-sentry-source-file="/home/runner/work/app-monorepo/app-monorepo/packages/components/src/primitives/Icon/react/solid/Wallet.tsx" role="img" style="flex-shrink: 0; color: var(--iconActive); width: 20px; height: 20px;" xmlns="http://www.w3.org/2000/svg"><path fill="currentColor" fill-rule="evenodd" d="M6.5 3A3.5 3.5 0 0 0 3 6.5V17a4 4 0 0 0 4 4h11a3 3 0 0 0 3-3v-7a3 3 0 0 0-3-3h-1V5.412A2.41 2.41 0 0 0 14.588 3zM15 8V5.412A.41.41 0 0 0 14.588 5H6.5a1.5 1.5 0 1 0 0 3zm.5 7.75a1.25 1.25 0 1 0 0-2.5 1.25 1.25 0 0 0 0 2.5" clip-rule="evenodd" data-sentry-element="Path" data-sentry-source-file="/home/runner/work/app-monorepo/app-monorepo/packages/components/src/primitives/Icon/react/solid/Wallet.tsx"></path></svg>