<svg viewBox="0 0 24 24" fill="none" xmlns="http://www.w3.org/2000/svg" style="height: 24px; width: 24px;"><path d="M8.262 12.001a3.742 3.742 0 0 0 3.737 3.738A3.742 3.742 0 0 0 15.737 12a3.742 3.742 0 0 0-3.738-3.737A3.742 3.742 0 0 0 8.262 12Z" fill="currentColor"></path><path d="M20.608 7.067a.164.164 0 0 0-.001-.165A9.993 9.993 0 0 0 12.002 2a9.957 9.957 0 0 0-7.818 3.765.164.164 0 0 0-.014.184l2.816 4.876a.164.164 0 0 0 .3-.04A4.87 4.87 0 0 1 12.44 7.15h8.026a.164.164 0 0 0 .142-.083Z" fill="currentColor"></path><path d="M13.479 16.75a.164.164 0 0 0-.174-.058 4.863 4.863 0 0 1-1.304.178 4.895 4.895 0 0 1-4.417-2.819L3.568 7.096a.164.164 0 0 0-.285.001A10.006 10.006 0 0 0 10.51 21.89a.164.164 0 0 0 .166-.08l2.816-4.877a.164.164 0 0 0-.012-.183Z" fill="currentColor"></path><path d="M21.161 8.244h-5.638a.164.164 0 0 0-.115.281 4.832 4.832 0 0 1 1.463 3.476 4.835 4.835 0 0 1-.877 2.785l-4.023 6.968a.164.164 0 0 0 .142.246h.002a9.94 9.94 0 0 0 6.995-2.965A9.938 9.938 0 0 0 22.002 12c0-1.26-.231-2.49-.688-3.653a.164.164 0 0 0-.153-.104Z" fill="currentColor"></path></svg>