<svg viewBox="0 0 24 24" fill="none" xmlns="http://www.w3.org/2000/svg" width="24" height="24"><g clip-path="url(#logo_svg__a)"><path fill-rule="evenodd" clip-rule="evenodd" d="M12 24c8.284 0 12-3.716 12-12 0-8.284-3.716-12-12-12C3.716 0 0 3.716 0 12c0 8.284 3.716 12 12 12Zm1.084-18.912H9.746L9.16 6.86h1.854v3.73h2.07v-5.5Zm2.724 10.016a3.807 3.807 0 1 1-7.615 0 3.807 3.807 0 0 1 7.615 0Zm-1.729 0a2.079 2.079 0 1 1-4.157 0 2.079 2.079 0 0 1 4.157 0Z" fill="currentColor"></path></g><defs><clipPath id="logo_svg__a"><path fill="#fff" d="M0 0h24v24H0z"></path></clipPath></defs></svg>