<svg viewBox="0 0 24 24" fill="none" xmlns="http://www.w3.org/2000/svg" width="24" height="24"><path fill-rule="evenodd" clip-rule="evenodd" d="M12 20.5a8.5 8.5 0 1 0 0-17 8.5 8.5 0 0 0 0 17Zm0 1.5c5.523 0 10-4.477 10-10S17.523 2 12 2 2 6.477 2 12s4.477 10 10 10Z" fill="currentColor"></path><path fill-rule="evenodd" clip-rule="evenodd" d="M10.564 5.486C9.927 7.078 9.5 9.381 9.5 12c0 2.62.427 4.922 1.064 6.514.32.8.664 1.347.969 1.67.3.316.458.316.467.316.009 0 .167 0 .467-.317.305-.322.649-.869.969-1.669.637-1.592 1.064-3.895 1.064-6.514 0-2.62-.427-4.922-1.064-6.514-.32-.8-.664-1.347-.969-1.67-.3-.316-.458-.316-.467-.316-.009 0-.167 0-.467.317-.305.322-.649.869-.969 1.669ZM12 2C9.79 2 8 6.477 8 12s1.79 10 4 10 4-4.477 4-10-1.79-10-4-10Z" fill="currentColor"></path><path fill-rule="evenodd" clip-rule="evenodd" d="M2.5 11.25h17v1.5h-17v-1.5Z" fill="currentColor"></path></svg>