<svg viewBox="0 0 24 24" fill="none" xmlns="http://www.w3.org/2000/svg" style="height: 24px; width: 24px;"><path d="M21.321 18.673c-.646-.265-.921-.616-.895-1.14.028-.61-.32-1.058-.484-1.234.099-.38.39-1.695 0-2.836-.42-1.221-1.697-3.087-3.017-4.922-.54-.753-.566-1.572-.595-2.52-.029-.904-.06-1.929-.565-3.068C15.216 1.71 14.116 1 12.745 1c-.815 0-1.651.255-2.295.699-1.319.91-1.145 2.893-1.03 4.206.016.18.031.35.04.494.076 1.285.006 1.963-.085 2.17-.059.133-.35.517-.658.922-.319.42-.68.895-.975 1.337-.354.533-.64 1.348-.915 2.136-.202.576-.392 1.12-.578 1.445a1.967 1.967 0 0 0-.19 1.48c-.134.092-.326.274-.489.617-.196.418-.594.643-1.421.802-.38.077-.643.238-.78.475-.2.346-.091.78.008 1.076.146.436.054.713-.112 1.214-.038.116-.082.247-.125.391a.705.705 0 0 0 .074.617c.312.477 1.224.645 2.163.756.56.067 1.174.29 1.767.508.58.212 1.182.431 1.729.498.083.01.165.016.245.016.824 0 1.197-.548 1.316-.773.295-.06 1.318-.255 2.371-.28 1.052-.031 2.07.177 2.358.24.09.174.329.57.71.774.21.114.5.18.799.18.318 0 .924-.076 1.404-.58.478-.507 1.674-1.155 2.547-1.628.195-.106.377-.204.537-.294.49-.272.758-.66.734-1.066-.02-.337-.243-.633-.582-.772l.01.013Zm-10.858-.099c-.061-.43-.614-.857-1.255-1.35-.524-.404-1.118-.862-1.281-1.25-.339-.8-.073-2.206.392-2.93.23-.364.417-.913.598-1.445.196-.575.399-1.168.625-1.428.359-.405.69-1.195.748-1.817.336.32.857.727 1.338.727.074 0 .146-.01.215-.03.329-.095.813-.375 1.281-.645.403-.234.901-.522 1.089-.548.321.461 2.188 4.593 2.38 5.92a6.275 6.275 0 0 1-.09 2.257 1.565 1.565 0 0 0-.222-.017c-.52 0-.658.284-.694.453-.092.44-.102 1.849-.103 2.165-.189.24-1.14 1.364-2.505 1.566-.556.08-1.076.121-1.543.121-.4 0-.656-.03-.762-.047l-.687-.785c.27-.135.54-.416.47-.925l.006.008Zm.87-12.944a.723.723 0 0 0-.063.03 1.375 1.375 0 0 0-.014-.142c-.075-.431-.361-.745-.68-.745a.439.439 0 0 0-.074.006c-.19.031-.339.174-.42.376.071-.444.322-.772.62-.772.35 0 .645.471.645 1.03 0 .07-.005.14-.016.215l.003.002Zm2.72.332c.031-.103.049-.213.049-.328 0-.506-.322-.902-.731-.902-.402 0-.727.404-.727.902 0 .034.001.068.004.102a1.866 1.866 0 0 0-.063-.024 1.382 1.382 0 0 1-.07-.434c0-.605.387-1.098.863-1.098.475 0 .862.492.862 1.097 0 .251-.07.491-.19.683l.002.002Zm-.351 1.177c-.007.03-.022.044-.183.128a4.46 4.46 0 0 0-.31.172l-.085.051c-.34.207-1.138.69-1.355.718-.147.02-.238-.037-.442-.177a5.83 5.83 0 0 0-.148-.099c-.369-.242-.606-.508-.633-.612.12-.093.418-.325.57-.463.31-.288.621-.481.775-.481l.024.001c.18.032.627.21.953.34.151.06.281.112.373.145.288.099.439.226.457.274l.004.003Zm2.593 13.449c.163-.735.35-1.735.32-2.323-.007-.134-.02-.28-.03-.42-.022-.264-.054-.656-.021-.772a.099.099 0 0 1 .021-.008c.001.336.075 1.008.611 1.243.16.069.343.104.544.104.537 0 1.135-.264 1.38-.508a2.54 2.54 0 0 0 .35-.46c.018.053.03.124.024.216-.033.496.209 1.155.669 1.398l.066.035c.163.086.598.314.605.422-.001 0-.005.012-.029.035-.108.098-.492.295-.863.484-.658.335-1.402.716-1.737 1.068-.471.495-1.004.829-1.326.829a.348.348 0 0 1-.106-.015c-.35-.11-.638-.614-.483-1.333l.005.005ZM4.38 18.713c-.036-.167-.064-.299-.034-.426.022-.095.489-.197.688-.24.28-.061.57-.124.76-.239.255-.155.394-.441.517-.694.088-.183.18-.371.288-.433a.059.059 0 0 1 .033-.008c.204 0 .633.428.879.812.062.097.178.29.312.515.4.67.95 1.59 1.237 1.898.258.276.677.808.574 1.265-.076.354-.477.642-.572.706a.631.631 0 0 1-.127.012c-.55 0-1.636-.457-2.22-.703l-.086-.036c-.326-.137-.859-.223-1.373-.307-.41-.067-.97-.157-1.063-.24-.076-.085.012-.359.089-.601.055-.175.113-.355.144-.544.044-.3-.008-.546-.05-.742l.004.005Z" fill="currentColor"></path></svg>