<svg viewBox="0 0 24 24" fill="none" xmlns="http://www.w3.org/2000/svg" width="24" height="24" style="flex: 0 0 auto;"><path fill-rule="evenodd" clip-rule="evenodd" d="M18.5 2.5h-13v19h13v-19ZM5.5 1A1.5 1.5 0 0 0 4 2.5v19A1.5 1.5 0 0 0 5.5 23h13a1.5 1.5 0 0 0 1.5-1.5v-19A1.5 1.5 0 0 0 18.5 1h-13Z" fill="currentColor"></path><path d="M12.004 11.491a2.755 2.755 0 1 1-.001 5.511 2.755 2.755 0 0 1 0-5.51Zm0 1.251a1.504 1.504 0 1 0 0 3.009 1.504 1.504 0 0 0 0-3.009Zm.784-1.763h-1.497V8.281H9.949L10.373 7h2.415v3.98Z" fill="#000"></path></svg>