<svg viewBox="0 0 24 24" fill="none" xmlns="http://www.w3.org/2000/svg" width="24" height="24"><path fill-rule="evenodd" clip-rule="evenodd" d="M2.217 6.229h5.12v1.5H3.785l.524 11.87a2.25 2.25 0 0 0 2.248 2.151h10.2a2.25 2.25 0 0 0 2.247-2.144l.56-11.877H10.5v-1.5h10.634l-.633 13.448a3.75 3.75 0 0 1-3.746 3.573h-10.2a3.75 3.75 0 0 1-3.746-3.584L2.217 6.229Z" fill="currentColor"></path><path fill-rule="evenodd" clip-rule="evenodd" d="M11.674 2.25A2.913 2.913 0 0 0 8.77 5.152v6.391h-1.5v-6.39A4.413 4.413 0 0 1 11.674.75a4.413 4.413 0 0 1 4.402 4.402v6.391h-1.5v-6.39a2.913 2.913 0 0 0-2.902-2.903Z" fill="currentColor"></path></svg>